<?xml version="1.0" standalone="no"?><!DOCTYPE svg PUBLIC "-//W3C//DTD SVG 1.1//EN" "http://www.w3.org/Graphics/SVG/1.1/DTD/svg11.dtd"><svg t="1750991345177" class="icon" viewBox="0 0 1024 1024" version="1.1" xmlns="http://www.w3.org/2000/svg" p-id="1626" xmlns:xlink="http://www.w3.org/1999/xlink" width="200" height="200"><path d="M572.2859375 835.9578125c-16.3265625 0-29.53125-13.2046875-29.53125-29.53125v-233.5078125c0-16.3265625 13.2046875-29.53125 29.53125-29.53125s29.53125 13.2046875 29.53125 29.53125v233.5078125c0 16.284375-13.246875 29.53125-29.53125 29.53125zM690.7484375 835.9578125c-16.3265625 0-29.53125-13.2046875-29.53125-29.53125v-233.5078125c0-16.3265625 13.2046875-29.53125 29.53125-29.53125s29.53125 13.2046875 29.53125 29.53125v233.5078125c0 16.284375-13.246875 29.53125-29.53125 29.53125zM811.7 835.9578125c-16.3265625 0-29.53125-13.2046875-29.53125-29.53125v-233.5078125c0-16.3265625 13.2046875-29.53125 29.53125-29.53125s29.53125 13.2046875 29.53125 29.53125v233.5078125c0 16.284375-13.246875 29.53125-29.53125 29.53125z" fill="#FEC963" p-id="1627"></path><path d="M283.3015625 486.603125h143.9859375c29.109375 0 52.734375-23.625 52.734375-52.734375v-144.28125c0-29.109375-23.625-52.734375-52.734375-52.734375H272.6703125c-23.2453125 0-42.103125 18.8578125-42.103125 42.103125v154.9546875c0.0421875 29.109375 23.625 52.6921875 52.734375 52.6921875zM798.875 236.853125h-154.6171875c-23.2453125 0-42.103125 18.8578125-42.103125 42.103125v154.9546875c0 29.109375 23.625 52.734375 52.734375 52.734375H798.875c29.109375 0 52.734375-23.625 52.734375-52.734375v-144.28125c0-29.1515625-23.625-52.7765625-52.734375-52.7765625zM428.7640625 600.25625H274.146875c-23.2453125 0-42.103125 18.8578125-42.103125 42.103125v154.9546875c0 29.109375 23.625 52.734375 52.734375 52.734375h143.9859375c29.109375 0 52.734375-23.625 52.734375-52.734375v-144.28125c0-29.19375-23.625-52.7765625-52.734375-52.7765625z" fill="#40A9FF" p-id="1628"></path><path d="M411.7625 176.69375h-185.203125c-31.978125 0-58.0078125 26.0296875-58.0078125 58.0078125v185.203125c0 31.978125 26.0296875 58.0078125 58.0078125 58.0078125h185.203125c31.978125 0 58.0078125-26.0296875 58.0078125-58.0078125v-185.203125c0.0421875-32.0203125-25.9875-58.0078125-58.0078125-58.0078125zM431.84375 419.9046875c0 11.053125-8.9859375 20.0390625-20.0390625 20.0390625h-185.203125c-11.053125 0-20.0390625-8.9859375-20.0390625-20.0390625v-185.203125c0-11.053125 8.9859375-20.0390625 20.0390625-20.0390625h185.203125c11.053125 0 20.0390625 8.9859375 20.0390625 20.0390625v185.203125zM411.7625 540.51875h-185.203125c-31.978125 0-58.0078125 26.0296875-58.0078125 58.0078125v185.203125c0 31.978125 26.0296875 58.0078125 58.0078125 58.0078125h185.203125c31.978125 0 58.0078125-26.0296875 58.0078125-58.0078125v-185.203125c0.0421875-31.978125-25.9875-58.0078125-58.0078125-58.0078125zM431.84375 783.7296875c0 11.053125-8.9859375 20.0390625-20.0390625 20.0390625h-185.203125c-11.053125 0-20.0390625-8.9859375-20.0390625-20.0390625v-185.203125c0-11.053125 8.9859375-20.0390625 20.0390625-20.0390625h185.203125c11.053125 0 20.0390625 8.9859375 20.0390625 20.0390625v185.203125zM783.603125 176.69375h-185.203125c-31.978125 0-58.0078125 26.0296875-58.0078125 58.0078125v185.203125c0 31.978125 26.0296875 58.0078125 58.0078125 58.0078125h185.203125c31.978125 0 58.0078125-26.0296875 58.0078125-58.0078125v-185.203125c0-32.0203125-26.0296875-58.0078125-58.0078125-58.0078125z m20.0390625 243.2109375c0 11.053125-8.9859375 20.0390625-20.0390625 20.0390625h-185.203125c-11.053125 0-20.0390625-8.9859375-20.0390625-20.0390625v-185.203125c0-11.053125 8.9859375-20.0390625 20.0390625-20.0390625h185.203125c11.053125 0 20.0390625 8.9859375 20.0390625 20.0390625v185.203125zM561.021875 539.675a18.984375 18.984375 0 0 0-18.984375 18.984375v261.5203125c0 10.5046875 8.4796875 18.984375 18.984375 18.984375s18.984375-8.4796875 18.984375-18.984375v-261.5203125c0-10.5046875-8.4796875-18.984375-18.984375-18.984375zM682.60625 539.675a18.984375 18.984375 0 0 0-18.984375 18.984375v261.5203125c0 10.5046875 8.4796875 18.984375 18.984375 18.984375s18.984375-8.4796875 18.984375-18.984375v-261.5203125a18.984375 18.984375 0 0 0-18.984375-18.984375zM804.1484375 539.675a18.984375 18.984375 0 0 0-18.984375 18.984375v261.5203125c0 10.5046875 8.4796875 18.984375 18.984375 18.984375s18.984375-8.4796875 18.984375-18.984375v-261.5203125c0-10.5046875-8.4796875-18.984375-18.984375-18.984375z" fill="#474747" p-id="1629"></path></svg>