<?xml version="1.0" standalone="no"?><!DOCTYPE svg PUBLIC "-//W3C//DTD SVG 1.1//EN" "http://www.w3.org/Graphics/SVG/1.1/DTD/svg11.dtd"><svg t="1750991312630" class="icon" viewBox="0 0 1024 1024" version="1.1" xmlns="http://www.w3.org/2000/svg" p-id="1138" data-spm-anchor-id="a313x.manage_type_myprojects.0.i0.7e5b3a81ISghVP" xmlns:xlink="http://www.w3.org/1999/xlink" width="200" height="200"><path d="M598.30859375 626.87304688c-8.70117188 0-17.13867188-3.42773438-23.37890625-9.66796876L418.39648437 460.671875c-8.52539063-8.52539063-11.77734375-21.00585938-8.43749999-32.60742188 3.33984375-11.6015625 12.65625001-20.390625 24.43359375-23.11523437l203.20312498-46.66992188c11.16210938-2.54882813 22.76367188 0.79101563 30.84960939 8.87695314 8.0859375 8.0859375 11.42578125 19.6875 8.87695313 30.84960936L630.65234375 601.20898438c-2.72460938 11.77734375-11.6015625 21.09375001-23.11523438 24.43359374-3.07617188 0.79101563-6.15234375 1.23046875-9.22851562 1.23046875zM507.51757812 456.1015625l71.89453126 71.89453125L600.85742188 434.65624999l-93.33984376 21.44531251z" fill="#4585F5" p-id="1139"></path><path d="M379.54882812 689.09960938c-8.70117188 0-17.13867188-3.42773438-23.37890624-9.66796876-8.52539063-8.52539063-11.68945313-20.91796875-8.4375-32.51953125l62.2265625-218.75976562c3.25195313-11.25 12.12890625-20.0390625 23.5546875-23.02734375 11.33789063-2.98828125 23.37890625 0.3515625 31.72851562 8.61328125l156.53320313 156.53320313c8.26171875 8.26171875 11.6015625 20.390625 8.61328124 31.72851562s-11.68945313 20.30273438-23.02734375 23.5546875L388.6015625 687.78125001c-2.98828125 0.96679687-6.06445313 1.31835938-9.05273438 1.31835937z m78.66210938-188.61328126L427.625 607.88867188l107.40234375-30.58593751-76.81640625-76.81640624z" fill="#29CCB6" p-id="1140"></path><path d="M512 907.5078125C293.89392089 907.5078125 116.4921875 730.10607911 116.4921875 512S293.89392089 116.4921875 512 116.4921875s395.5078125 177.4017334 395.5078125 395.5078125-177.4017334 395.5078125-395.5078125 395.5078125z m0-708.20617676c-172.45788575 0-312.69836426 140.24047852-312.69836426 312.69836426S339.54211425 824.69836426 512 824.69836426 824.69836426 684.45788575 824.69836426 512 684.45788575 199.30163574 512 199.30163574z" fill="#4585F5" p-id="1141"></path></svg>