<?xml version="1.0" standalone="no"?><!DOCTYPE svg PUBLIC "-//W3C//DTD SVG 1.1//EN" "http://www.w3.org/Graphics/SVG/1.1/DTD/svg11.dtd"><svg t="1750991472485" class="icon" viewBox="0 0 1024 1024" version="1.1" xmlns="http://www.w3.org/2000/svg" p-id="1138" xmlns:xlink="http://www.w3.org/1999/xlink" width="200" height="200"><path d="M658.2272 588.86826666l157.4912 157.4912a98.304 98.304 0 0 0 3.4816-24.3712V243.98506666A98.9184 98.9184 0 0 0 720.2816 145.06666666H303.7184A98.9184 98.9184 0 0 0 204.8 243.98506666v478.0032A98.9184 98.9184 0 0 0 303.7184 820.90666666h416.5632a98.5088 98.5088 0 0 0 22.528-2.8672l-156.8768-156.8768zM283.648 247.46666666h450.56a20.48 20.48 0 0 1 0 40.96h-450.56a20.48 20.48 0 0 1 0-40.96z m0 143.36h450.56a20.48 20.48 0 0 1 0 40.96h-450.56a20.48 20.48 0 0 1 0-40.96z m195.1744 327.68h-200.9088a20.48 20.48 0 0 1 0-40.96h200.9088a20.48 20.48 0 0 1 0 40.96z m0-143.36h-200.9088a20.48 20.48 0 0 1 0-40.96h200.9088a20.48 20.48 0 0 1 0 40.96z m93.5936 0l73.5232 1.2288L573.44 648.66986666zM895.7952 826.23146666L823.296 898.73066666l15.1552 15.1552a12.9024 12.9024 0 0 0 18.2272 0l54.0672-54.0672a12.9024 12.9024 0 0 0 0-18.2272zM761.4464 836.67626666l72.41728-72.3968 51.83488 51.83488-72.3968 72.41728z" fill="#0090FF" p-id="1139"></path></svg>