<?xml version="1.0" standalone="no"?><!DOCTYPE svg PUBLIC "-//W3C//DTD SVG 1.1//EN" "http://www.w3.org/Graphics/SVG/1.1/DTD/svg11.dtd"><svg t="1750991515325" class="icon" viewBox="0 0 1126 1024" version="1.1" xmlns="http://www.w3.org/2000/svg" p-id="1138" xmlns:xlink="http://www.w3.org/1999/xlink" width="219.921875" height="200"><path d="M913.59138556 240.91642722A297.69669797 297.69669797 0 0 0 796.97381405 175.89869011c-59.51153018-17.46413166-148.58416247-22.94252946-247.61246118 42.07520834A314.00675087 314.00675087 0 0 0 461.5679405 175.89869011c-65.49049254-19.23001088-166.8547586-23.87413506-277.91050423 63.96099036A46.30219537 46.30219537 0 0 0 165.97083215 276.20620873v402.85690933a46.38562279 46.38562279 0 0 0 22.56710601 39.85047825 45.45401718 45.45401718 0 0 0 45.59306222 0.55618218c1.01503304-0.55618286 108.45559278-56.10491219 298.54487683 3.71251857a43.10414597 43.10414597 0 0 0 13.62647129 2.14130266h0.45885086a45.52354005 45.52354005 0 0 0 22.84519745-5.85382123c1.01503304-0.55618286 108.45559278-56.10491219 298.54487615 3.71251857a43.10414597 43.10414597 0 0 0 13.62647195 2.14130266 46.06581764 46.06581764 0 0 0 45.88505823-46.26048166V274.25957007a46.4273365 46.4273365 0 0 0-14.07141757-33.34314285zM500.44509941 618.68950512a615.19349357 615.19349357 0 0 0-135.59730013-15.87901117 476.66233089 476.66233089 0 0 0-107.06513697 11.70764175V299.62149292c57.75955553-39.94781026 116.52023952-51.91963888 174.73864589-35.85986825a220.74884528 220.74884528 0 0 1 67.9794095 32.70353256z m335.48930099 0a615.19349357 615.19349357 0 0 0-135.59730081-15.87901117 476.66233089 476.66233089 0 0 0-107.06513629 11.70764175V299.62149292c57.75955553-39.94781026 116.52023952-51.91963888 174.73864589-35.85986825a220.74884528 220.74884528 0 0 1 67.97940881 32.70353256z" fill="#0073FA" p-id="1139"></path><path d="M927.03709808 827.10500222A45.88505822 45.88505822 0 0 1 883.27943796 859.61387146a44.021847 44.021847 0 0 1-13.72380397-2.14130334c-190.04756965-59.78962161-297.55765225-4.26870074-298.55878071-3.71251789a44.14698815 44.14698815 0 0 1-24.41641336 5.75648924 10.53965911 10.53965911 0 0 1-1.75197464 0.097332 44.021847 44.021847 0 0 1-13.72380397-2.14130335c-190.04756965-59.78962161-297.44641568-4.26870074-298.55878071-3.71251789a45.5930629 45.5930629 0 0 1-62.361966-18.07593212 46.39952736 46.39952736 0 0 1 17.86736356-62.89033969c5.43668407-3.0590037 134.49883965-73.11019298 355.76215407-8.17588265 43.75766014-17.83955441 167.28579964-53.96360953 352.91171825 4.46336476a46.3300045 46.3300045 0 0 1 30.3119476 58.0237417z" fill="#00D9FF" p-id="1140"></path></svg>